<svg width="280" height="64" viewBox="0 0 280 64" fill="none" xmlns="http://www.w3.org/2000/svg">
<g clip-path="url(#clip0_18489_1025)">
<path d="M83.1968 38.9534V24.2007H93.4941V27.0505H86.2594V38.9548H83.1968V38.9534Z" fill="white"/>
<path d="M100.176 24.2078H97.1557L91.3491 38.9519H94.5227L95.4217 36.4921H103.112C103.022 36.1952 102.932 35.8969 102.838 35.6015C102.688 35.1296 102.498 34.6721 102.338 34.2031C102.281 34.0367 102.217 33.8718 102.16 33.7054H96.4714L98.6649 27.7991L100.265 32.1664C100.272 32.1836 100.287 32.198 100.294 32.2152C100.45 32.6067 100.584 33.0069 100.72 33.4071L100.83 33.7068H100.827C100.979 34.15 101.157 34.5831 101.302 35.0292C101.444 35.4666 101.567 35.9098 101.7 36.3501C101.715 36.3989 101.733 36.4462 101.747 36.495H101.88L102.799 38.9547H105.972L100.176 24.2106V24.2078Z" fill="white"/>
<path d="M107.328 38.9533V24.2092H114.491C115.736 24.2092 116.594 24.4459 117.298 24.8991C118.48 25.6392 119.247 26.9458 119.247 28.6239C119.247 30.3019 118.48 31.5655 117.276 32.3271C116.582 32.7688 115.736 33.0155 114.491 33.0155H110.379V38.9519H107.328V38.9533ZM114.093 30.1857C114.675 30.1857 114.951 30.1442 115.207 30.0409C115.777 29.8042 116.238 29.3324 116.238 28.6224C116.238 27.9125 115.798 27.4392 115.207 27.2025C114.962 27.0992 114.686 27.0476 114.084 27.0476H110.38V30.1857H114.094H114.093Z" fill="white"/>
<path d="M128.875 36.4936H122.417L121.518 38.9533H118.345L124.151 24.2092H127.171L132.968 38.9533H129.794L128.875 36.4936ZM123.467 33.7068H127.826L125.662 27.8006L123.468 33.7068H123.467Z" fill="white"/>
<path d="M137.414 29.4457H137.376V24.1992H134.323V38.9534H137.376V32.297H137.414V29.4457Z" fill="white"/>
<path d="M143.936 24.1992V29.4457H135.87V32.297H143.936V38.9534H146.999V24.1992H143.936Z" fill="white"/>
<path d="M161.665 24.1992V27.0491H156.848V38.9534H153.787V27.0491H148.98V24.1992H161.665Z" fill="white"/>
<path d="M168.606 38.9533V24.2092H175.77C177.015 24.2092 177.872 24.4459 178.577 24.8991C179.759 25.6392 180.525 26.9458 180.525 28.6239C180.525 30.3019 179.759 31.5655 178.555 32.3271C177.861 32.7688 177.015 33.0155 175.77 33.0155H171.658V38.9519H168.606V38.9533ZM175.372 30.1857C175.954 30.1857 176.229 30.1442 176.486 30.0409C177.056 29.8042 177.514 29.3324 177.514 28.6224C177.514 27.9125 177.076 27.4392 176.486 27.2025C176.241 27.0992 175.965 27.0476 175.363 27.0476H171.659V30.1857H175.373H175.372Z" fill="white"/>
<path d="M188.449 24.2078H185.429L179.622 38.9519H182.796L183.695 36.4921H191.16C191.026 36.2096 190.889 35.9313 190.776 35.6387C190.678 35.3863 190.615 35.121 190.537 34.8614C190.518 34.7968 190.498 34.7337 190.477 34.6706C190.467 34.6391 190.454 34.609 190.444 34.5774C190.439 34.5631 190.44 34.5645 190.439 34.5573C190.421 34.5272 190.402 34.4971 190.394 34.4856C190.379 34.4584 190.36 34.4311 190.345 34.4039C190.285 34.3006 190.387 34.4526 190.403 34.4727C190.247 34.2719 190.15 34.0855 190.138 33.8287C190.137 33.7857 190.157 33.747 190.163 33.7039H184.744L186.938 27.7977L189.101 33.7039H189.091C189.181 33.8775 189.256 34.0582 189.32 34.2576C189.406 34.5229 189.467 34.7954 189.559 35.0579C189.569 35.0851 189.579 35.1124 189.591 35.1411C189.619 35.2056 189.651 35.2701 189.68 35.3347C189.749 35.4781 189.82 35.6201 189.887 35.765C190.01 36.0317 190.12 36.31 190.191 36.5983L191.072 38.9519H194.245L188.449 24.2078Z" fill="white"/>
<path d="M196.306 34.1372C197.807 35.547 199.185 36.0605 200.47 36.1035C202.124 36.1552 203.379 35.3204 203.379 34.3537C203.379 33.4588 202.645 32.9037 201.643 32.6972C201.061 32.5738 200.428 32.5323 199.787 32.5323H197.663V29.7971H199.787C200.327 29.7971 200.888 29.7656 201.369 29.6637C202.114 29.5089 202.635 29.1073 202.635 28.469C202.635 27.6142 201.542 27.019 200.114 27.019C199.083 27.019 197.95 27.3489 196.787 28.2539L195.144 26.0207C196.94 24.7342 198.727 24.2007 200.297 24.2007C203.39 24.2007 205.664 26.1757 205.664 28.4805C205.664 29.572 205.093 30.3637 204.134 30.8972C205.551 31.6588 206.428 32.8722 206.428 34.3437C206.428 36.7403 203.97 38.9419 200.755 38.9634C198.827 38.9735 196.613 38.232 194.481 36.3603L196.306 34.1372Z" fill="white"/>
<path d="M208.453 24.2078H214.413C215.576 24.2078 216.35 24.4028 217.004 24.7643C218.3 25.4828 219.168 26.8109 219.168 28.5607C219.168 29.4758 218.821 30.299 218.218 30.9875C219.484 31.6974 220.411 32.9323 220.411 34.5372C220.411 36.2454 219.575 37.5922 218.32 38.3337C217.646 38.7252 216.849 38.9519 215.646 38.9519H208.451V24.2078H208.453ZM214.096 30.104C214.677 30.104 214.943 30.0624 215.209 29.9591C215.801 29.7124 216.259 29.2492 216.259 28.5306C216.259 27.812 215.8 27.3574 215.209 27.0992C214.965 26.9859 214.699 26.9443 214.087 26.9443H211.505V30.1025H214.097L214.096 30.104ZM215.046 36.1551C215.679 36.1551 215.985 36.1034 216.271 35.9901C216.894 35.732 217.404 35.2171 217.404 34.4153C217.404 33.6638 216.923 33.1202 216.271 32.8635C215.995 32.7502 215.689 32.6985 215.026 32.6985H211.505V36.1565H215.046V36.1551Z" fill="white"/>
<path d="M232.588 38.9534V29.6121L224.098 38.9534H222.414V24.2007H225.465V33.5319L233.966 24.2007H235.639V38.9534H232.588Z" fill="white"/>
<path d="M250.303 24.1992V27.0491H245.487V38.9534H242.426V27.0491H237.619V24.1992H250.303Z" fill="white"/>
<path d="M262.458 38.9534V29.6121L253.969 38.9534H252.285V24.2007H255.336V33.5319L263.837 24.2007H265.509V38.9534H262.458Z" fill="white"/>
<path d="M272.723 24.2077C271.478 24.2077 270.622 24.4444 269.918 24.8976C268.733 25.6276 267.967 26.9357 267.967 28.6224C267.967 29.5776 268.233 30.4424 268.713 31.1423C269.223 31.8939 269.908 32.3672 270.683 32.634L270.807 32.6856L267.103 38.9518H270.613L274.073 32.9954H277.64V30.1771H273.122C272.541 30.1771 272.265 30.1455 272.01 30.0322C271.438 29.7956 270.979 29.3223 270.979 28.6224C270.979 27.9224 271.417 27.4391 272.01 27.2025C272.253 27.0891 272.531 27.0476 273.132 27.0476H276.825V30.1757H276.807V32.994H276.825V38.9504H279.876V24.2063H272.723V24.2077Z" fill="white"/>
<path d="M29.2389 63.1196H33.3385V54.8512H29.2389C17.6387 54.8512 8.20055 44.5432 8.20055 31.873C8.20055 21.4388 15.2574 12.2553 25.1379 9.60341V28.9945C25.1522 29.3014 25.357 32.0523 28.3186 33.9512C29.4395 34.6712 30.8435 35.0786 32.3755 35.1302L33.3385 35.1618V0.625L28.9729 0.629303C12.7269 1.67774 0 15.4021 0 31.8745C0 48.3468 13.1166 63.121 29.2389 63.121V63.1196Z" fill="white"/>
<path d="M65.5931 44.4098L66.4437 45.3076L67.7382 43.1046C67.8292 42.9526 69.9757 39.2537 69.6443 31.7741C68.8719 14.3092 56.0511 0.625 40.4537 0.625H36.3513V63.1239H37.283L38.5889 63.1167C38.8093 63.0952 43.9601 62.7897 44.5533 55.2255V9.34094C53.9174 11.4134 60.9558 20.3832 61.4224 30.869C58.5917 29.3344 55.9402 28.1497 49.7951 27.7366H47.8065V36.0065L49.7055 36.0022C57.8762 36.7982 61.9971 40.9877 62.1194 41.1053C62.1365 41.1182 63.7083 42.4191 65.5931 44.4084V44.4098Z" fill="white"/>
</g>
<defs>
<clipPath id="clip0_18489_1025">
<rect width="280" height="63" fill="white" transform="translate(0 0.501953)"/>
</clipPath>
</defs>
</svg>
