<svg width="358" height="80" viewBox="0 0 358 80" fill="none" xmlns="http://www.w3.org/2000/svg">
<g clip-path="url(#clip0_18489_966)">
<path d="M106.373 48.8272V30.0936H119.539V33.7124H110.289V48.829H106.373V48.8272Z" fill="#657A64"/>
<path d="M128.082 30.1027H124.22L116.796 48.8253H120.854L122.003 45.7018H131.835C131.721 45.3248 131.606 44.946 131.486 44.5708C131.293 43.9716 131.052 43.3907 130.846 42.7951C130.773 42.5838 130.691 42.3744 130.619 42.1631H123.346L126.15 34.6631L128.196 40.2089C128.205 40.2307 128.223 40.249 128.233 40.2708C128.433 40.768 128.604 41.2762 128.778 41.7843L128.918 42.1649H128.915C129.109 42.7277 129.337 43.2777 129.522 43.8442C129.704 44.3996 129.86 44.9624 130.031 45.5215C130.049 45.5835 130.073 45.6436 130.091 45.7055H130.26L131.435 48.829H135.493L128.082 30.1063V30.1027Z" fill="#657A64"/>
<path d="M137.226 48.8272V30.1045H146.385C147.977 30.1045 149.073 30.405 149.974 30.9805C151.485 31.9203 152.465 33.5795 152.465 35.7104C152.465 37.8413 151.485 39.4458 149.946 40.4129C149.059 40.9738 147.977 41.2871 146.385 41.2871H141.127V48.8253H137.226V48.8272ZM145.876 37.6937C146.62 37.6937 146.973 37.6409 147.3 37.5098C148.029 37.2093 148.619 36.6101 148.619 35.7085C148.619 34.807 148.057 34.206 147.3 33.9055C146.987 33.7744 146.634 33.7088 145.865 33.7088H141.129V37.6937H145.878H145.876Z" fill="#657A64"/>
<path d="M164.776 45.7037H156.519L155.37 48.8272H151.312L158.736 30.1045H162.597L170.009 48.8272H165.951L164.776 45.7037ZM157.861 42.165H163.434L160.668 34.665L157.863 42.165H157.861Z" fill="#657A64"/>
<path d="M175.694 36.7539H175.645V30.0917H171.742V48.8271H175.645V40.3746H175.694V36.7539Z" fill="#657A64"/>
<path d="M184.033 30.0917V36.7539H173.719V40.3746H184.033V48.8271H187.949V30.0917H184.033Z" fill="#657A64"/>
<path d="M206.7 30.0917V33.7106H200.541V48.8271H196.627V33.7106H190.482V30.0917H206.7Z" fill="#657A64"/>
<path d="M215.575 48.8272V30.1045H224.734C226.326 30.1045 227.422 30.405 228.323 30.9805C229.834 31.9203 230.814 33.5795 230.814 35.7104C230.814 37.8413 229.834 39.4458 228.295 40.4129C227.408 40.9738 226.326 41.2871 224.734 41.2871H219.476V48.8253H215.575V48.8272ZM224.225 37.6937C224.969 37.6937 225.322 37.6409 225.649 37.5098C226.378 37.2093 226.964 36.6101 226.964 35.7085C226.964 34.807 226.404 34.206 225.649 33.9055C225.336 33.7744 224.983 33.7088 224.214 33.7088H219.478V37.6937H224.227H224.225Z" fill="#657A64"/>
<path d="M240.945 30.1027H237.084L229.66 48.8253H233.717L234.867 45.7018H244.411C244.24 45.3431 244.066 44.9897 243.92 44.6182C243.795 44.2976 243.715 43.9607 243.615 43.6311C243.591 43.5491 243.566 43.469 243.538 43.3888C243.526 43.3488 243.509 43.3105 243.497 43.2705C243.489 43.2522 243.491 43.2541 243.489 43.245C243.467 43.2067 243.442 43.1685 243.433 43.1539C243.413 43.1193 243.389 43.0847 243.369 43.0501C243.293 42.9189 243.424 43.112 243.444 43.1375C243.244 42.8825 243.12 42.6458 243.106 42.3197C243.104 42.2651 243.129 42.2159 243.136 42.1613H236.209L239.013 34.6613L241.78 42.1613H241.767C241.882 42.3817 241.978 42.6111 242.06 42.8643C242.169 43.2012 242.247 43.5473 242.365 43.8806C242.378 43.9152 242.391 43.9498 242.405 43.9862C242.442 44.0682 242.482 44.1501 242.52 44.2321C242.607 44.4142 242.698 44.5945 242.784 44.7785C242.942 45.1172 243.082 45.4705 243.173 45.8366L244.299 48.8253H248.356L240.945 30.1027Z" fill="#657A64"/>
<path d="M250.992 42.7113C252.91 44.5016 254.673 45.1537 256.315 45.2083C258.43 45.2739 260.034 44.2139 260.034 42.9863C260.034 41.8499 259.096 41.145 257.816 40.8828C257.072 40.7261 256.262 40.6733 255.442 40.6733H252.727V37.2002H255.442C256.133 37.2002 256.85 37.1601 257.465 37.0308C258.418 36.8341 259.083 36.3241 259.083 35.5137C259.083 34.4282 257.686 33.6724 255.86 33.6724C254.542 33.6724 253.094 34.0913 251.606 35.2405L249.506 32.4048C251.803 30.7711 254.087 30.0936 256.095 30.0936C260.049 30.0936 262.957 32.6015 262.957 35.5282C262.957 36.9142 262.226 37.9196 261 38.5971C262.812 39.5642 263.934 41.105 263.934 42.9736C263.934 46.0169 260.791 48.8126 256.681 48.8399C254.214 48.8527 251.384 47.9111 248.658 45.5343L250.992 42.7113Z" fill="#657A64"/>
<path d="M266.521 30.1027H274.142C275.63 30.1027 276.619 30.3504 277.456 30.8093C279.112 31.7218 280.222 33.4083 280.222 35.6302C280.222 36.7922 279.778 37.8376 279.007 38.7118C280.626 39.6133 281.811 41.1815 281.811 43.2195C281.811 45.3886 280.742 47.0988 279.138 48.0404C278.276 48.5376 277.257 48.8253 275.719 48.8253H266.52V30.1027H266.521ZM273.736 37.5899C274.48 37.5899 274.82 37.5371 275.16 37.406C275.917 37.0927 276.503 36.5044 276.503 35.592C276.503 34.6795 275.915 34.1022 275.16 33.7743C274.848 33.6305 274.507 33.5776 273.725 33.5776H270.424V37.5881H273.738L273.736 37.5899ZM274.951 45.2739C275.76 45.2739 276.152 45.2083 276.517 45.0644C277.314 44.7366 277.967 44.0827 277.967 43.0647C277.967 42.1103 277.352 41.42 276.517 41.094C276.164 40.9502 275.773 40.8846 274.926 40.8846H270.424V45.2757H274.951V45.2739Z" fill="#657A64"/>
<path d="M297.38 48.8272V36.9652L286.526 48.8272H284.373V30.0936H288.274V41.9428L299.142 30.0936H301.281V48.8272H297.38Z" fill="#657A64"/>
<path d="M320.031 30.0917V33.7106H313.872V48.8271H309.958V33.7106H303.813V30.0917H320.031Z" fill="#657A64"/>
<path d="M335.572 48.8272V36.9652L324.717 48.8272H322.564V30.0936H326.465V41.9428L337.334 30.0936H339.473V48.8272H335.572Z" fill="#657A64"/>
<path d="M348.696 30.1027C347.104 30.1027 346.009 30.4032 345.109 30.9787C343.594 31.9057 342.616 33.5667 342.616 35.7085C342.616 36.9215 342.956 38.0197 343.569 38.9085C344.221 39.8628 345.096 40.4639 346.088 40.8026L346.246 40.8682L341.51 48.8253H345.998L350.422 41.2616H354.983V37.6828H349.207C348.463 37.6828 348.11 37.6427 347.784 37.4988C347.053 37.1983 346.466 36.5973 346.466 35.7085C346.466 34.8197 347.026 34.206 347.784 33.9055C348.095 33.7616 348.45 33.7088 349.219 33.7088H353.941V37.681H353.917V41.2598H353.941V48.8235H357.842V30.1008H348.696V30.1027Z" fill="#657A64"/>
<path d="M37.3841 79.5145H42.6256V69.0149H37.3841C22.5523 69.0149 10.485 55.9254 10.485 39.8363C10.485 26.5865 19.5077 14.9249 32.1406 11.5574V36.181C32.1588 36.5707 32.4207 40.0639 36.2073 42.4753C37.6405 43.3896 39.4356 43.9068 41.3944 43.9724L42.6256 44.0125V0.15625L37.044 0.161714C16.2722 1.49306 0 18.9208 0 39.8381C0 60.7554 16.7705 79.5163 37.3841 79.5163V79.5145Z" fill="#657A64"/>
<path d="M83.8652 55.756L84.9528 56.8961L86.6079 54.0987C86.7243 53.9056 89.4688 49.2085 89.045 39.7106C88.0574 17.533 71.6652 0.15625 51.7228 0.15625H46.4775V79.5199H47.6688L49.3384 79.5108C49.6203 79.4835 56.2059 79.0956 56.9643 69.4902V11.2241C68.9371 13.8558 77.9362 25.2461 78.5327 38.5614C74.9134 36.6126 71.5233 35.1083 63.6664 34.5837H61.1238V45.0852L63.5518 45.0797C73.9986 46.0905 79.2675 51.4105 79.4239 51.5598C79.4457 51.5762 81.4554 53.2281 83.8652 55.7542V55.756Z" fill="#657A64"/>
</g>
<defs>
<clipPath id="clip0_18489_966">
<rect width="358" height="80" fill="white"/>
</clipPath>
</defs>
</svg>
