<svg width="24" height="25" viewBox="0 0 24 25" fill="none" xmlns="http://www.w3.org/2000/svg">
<path d="M8.38028 9.35531C9.07627 10.8049 10.0251 12.1636 11.2266 13.3651C12.4282 14.5667 13.7869 15.5155 15.2365 16.2115C15.3612 16.2714 15.4235 16.3013 15.5024 16.3243C15.7828 16.406 16.127 16.3473 16.3644 16.1773C16.4313 16.1295 16.4884 16.0723 16.6027 15.958C16.9523 15.6084 17.1271 15.4336 17.3029 15.3193C17.9658 14.8883 18.8204 14.8883 19.4833 15.3193C19.6591 15.4336 19.8339 15.6084 20.1835 15.958L20.3783 16.1529C20.9098 16.6843 21.1755 16.95 21.3198 17.2354C21.6069 17.803 21.6069 18.4732 21.3198 19.0408C21.1755 19.3262 20.9098 19.5919 20.3783 20.1234L20.2207 20.281C19.6911 20.8106 19.4263 21.0754 19.0662 21.2777C18.6667 21.5021 18.0462 21.6635 17.588 21.6621C17.1751 21.6609 16.8928 21.5808 16.3284 21.4205C13.295 20.5596 10.4326 18.9351 8.04466 16.5471C5.65668 14.1591 4.03221 11.2968 3.17124 8.26339C3.01103 7.69894 2.93092 7.41672 2.9297 7.00377C2.92833 6.54555 3.08969 5.92506 3.31411 5.52555C3.51636 5.16552 3.78117 4.90071 4.3108 4.37109L4.46843 4.21345C4.99987 3.68201 5.2656 3.41629 5.55098 3.27194C6.11854 2.98487 6.7888 2.98487 7.35636 3.27194C7.64174 3.41629 7.90747 3.68201 8.43891 4.21345L8.63378 4.40832C8.98338 4.75793 9.15819 4.93273 9.27247 5.10851C9.70347 5.7714 9.70347 6.62598 9.27247 7.28887C9.15819 7.46465 8.98338 7.63945 8.63378 7.98906C8.51947 8.10337 8.46231 8.16053 8.41447 8.22734C8.24446 8.46477 8.18576 8.80903 8.26748 9.08938C8.29048 9.16827 8.32041 9.23062 8.38028 9.35531Z" stroke="#657A64" stroke-width="2" stroke-linecap="round" stroke-linejoin="round"/>
</svg>
