<svg width="40" height="41" viewBox="0 0 40 41" fill="none" xmlns="http://www.w3.org/2000/svg">
<path d="M13.3333 5.50195L26.6667 35.502M5 28.8353L20 20.502M13 35.502H27C29.8003 35.502 31.2004 35.502 32.27 34.957C33.2108 34.4776 33.9757 33.7127 34.455 32.7719C35 31.7023 35 30.3022 35 27.502V13.502C35 10.7017 35 9.30156 34.455 8.232C33.9757 7.29119 33.2108 6.52629 32.27 6.04692C31.2004 5.50195 29.8003 5.50195 27 5.50195H13C10.1997 5.50195 8.79961 5.50195 7.73005 6.04692C6.78924 6.52629 6.02433 7.29119 5.54497 8.232C5 9.30156 5 10.7017 5 13.502V27.502C5 30.3022 5 31.7023 5.54497 32.7719C6.02433 33.7127 6.78924 34.4776 7.73005 34.957C8.79961 35.502 10.1997 35.502 13 35.502Z" stroke="#657A64" stroke-width="3" stroke-linecap="round" stroke-linejoin="round"/>
</svg>
