<svg width="40" height="40" viewBox="0 0 40 40" fill="none" xmlns="http://www.w3.org/2000/svg">
<rect x="2.5" y="2.5" width="35" height="35" rx="6" fill="#2789F6"/>
<path d="M28.6541 22.9176C28.3849 22.5522 28.3245 22.1824 28.4717 21.8076C28.8389 20.8078 34.1867 14.4577 31.9589 14.4577C30.428 14.478 28.587 14.4577 27.1193 14.4577C26.8468 14.524 26.6705 14.667 26.5602 14.9579C25.702 16.9368 24.6518 19.3518 23.1126 20.9039C22.9101 21.0672 22.7838 21.0602 22.5532 20.9999C21.4735 19.8632 22.6247 15.9689 21.9681 14.4301C21.8387 14.1289 21.5555 13.9928 21.2657 13.9162C19.7999 13.5669 16.4521 13.7748 15.9059 14.478C15.7497 14.679 15.7279 14.7887 15.8407 14.8068C16.3611 14.8889 16.7295 15.0853 16.9464 15.3958C17.3555 16.2967 17.6569 21.0955 16.4521 21.0955C15.2473 21.0955 13.3044 16.386 12.7707 15.0804C12.6286 14.6874 12.2671 14.462 11.8861 14.3955L8.32162 14.4227C7.69507 14.4227 7.34491 14.7318 7.56698 15.3545C9.42351 19.9629 13.4862 28.8955 19.7174 28.6719C20.3416 28.6719 21.4155 28.9115 21.903 28.3703C22.5729 27.4815 21.7559 25.8986 22.9047 25.2949C23.1944 25.1407 23.4947 25.2699 23.7436 25.4595C25.0215 26.4324 25.6999 28.1403 27.2757 28.6587C27.5528 28.75 27.7956 28.7728 28.004 28.7272L31.3342 28.6725C31.9525 28.6725 32.5615 28.3974 32.4336 27.6582C31.9481 26.0731 30.0135 24.4437 28.6541 22.9176Z" fill="white"/>
</svg>
